<?xml version="1.0" encoding="UTF-8"?> <svg xmlns="http://www.w3.org/2000/svg" viewBox="0 0 100 100" fill-rule="evenodd"><g style="transform-origin: center center; transform: scale(0.9);"><path d="m6.25 8.332c0-1.1484 0.93359-2.082 2.082-2.082h58.336c0.55078 0 1.082 0.21875 1.4727 0.60938l25 25c0.39062 0.39062 0.60938 0.92188 0.60938 1.4727v58.336c0 1.1484-0.93359 2.082-2.082 2.082h-83.336c-1.1484 0-2.082-0.93359-2.082-2.082zm4.168 2.0859v79.164h79.164v-55.387l-23.777-23.777z" fill-rule="evenodd" fill="#ffffff"></path><path d="m65.871 6.4102c0.77734-0.32422 1.6719-0.14453 2.2695 0.44922l25 25c0.59375 0.59766 0.77344 1.4922 0.44922 2.2695-0.32031 0.78125-1.082 1.2891-1.9219 1.2891h-25c-1.1523 0-2.0859-0.93359-2.0859-2.0859v-25c0-0.83984 0.50781-1.6016 1.2891-1.9219zm2.8789 6.9531v17.887h17.887z" fill-rule="evenodd" fill="#ffffff"></path><path d="m16.668 50c0-5.7539 4.6641-10.418 10.414-10.418 5.7539 0 10.418 4.6641 10.418 10.418v2.082h-4.168v-2.082c0-3.4531-2.7969-6.25-6.25-6.25-3.4492 0-6.25 2.7969-6.25 6.25v16.668c0 3.4492 2.8008 6.25 6.25 6.25 3.4531 0 6.25-2.8008 6.25-6.25v-2.0859h4.168v2.0859c0 5.75-4.6641 10.414-10.418 10.414-5.75 0-10.414-4.6641-10.414-10.414z" fill-rule="evenodd" fill="#ffffff"></path><path d="m47.918 66.668v-16.668h4.1641v16.668z" fill-rule="evenodd" fill="#ffffff"></path><path d="m72.918 66.668v-16.668h4.1641v16.668z" fill-rule="evenodd" fill="#ffffff"></path><path d="m58.332 60.418h-16.664v-4.168h16.664z" fill-rule="evenodd" fill="#ffffff"></path><path d="m83.332 60.418h-16.664v-4.168h16.664z" fill-rule="evenodd" fill="#ffffff"></path></g></svg> 