<?xml version="1.0" encoding="UTF-8"?> <svg xmlns="http://www.w3.org/2000/svg" viewBox="0 0 100 100" fill-rule="evenodd"><g style="transform-origin: center center; transform: scale(0.9);"><path d="m52 24.84c-0.37109-0.64062-1.0586-1.0391-1.8008-1.0391-0.74219 0-1.4258 0.39844-1.8008 1.0391l-24.398 48.559c-0.48438 0.99609-0.074219 2.1953 0.92188 2.6797 0.99219 0.48828 2.1914 0.074219 2.6797-0.91797l9.4766-19.16h25.84l9.5586 19.16h0.003907c0.33594 0.6875 1.0352 1.1211 1.8008 1.1211 0.30469-0.003906 0.60156-0.074219 0.87891-0.20312 0.97656-0.49609 1.3867-1.6836 0.91797-2.6797zm-12.922 27.16 10.922-21.801 10.922 21.801zm46.922-44h-72c-3.3125 0-6 2.6875-6 6v72c0 3.3125 2.6875 6 6 6h72c3.3125 0 6-2.6875 6-6v-72c0-3.3125-2.6875-6-6-6zm2 78c0 0.53125-0.21094 1.0391-0.58594 1.4141s-0.88281 0.58594-1.4141 0.58594h-72c-1.1055 0-2-0.89453-2-2v-72c0-1.1055 0.89453-2 2-2h72c0.53125 0 1.0391 0.21094 1.4141 0.58594s0.58594 0.88281 0.58594 1.4141z" fill="#ffffff"></path></g></svg> 